ISO-10303-21;
HEADER;
/* Generated by software containing ST-Developer
 * from STEP Tools, Inc. (www.steptools.com) 
 */
/* OPTION: using custom renumber hook */

FILE_DESCRIPTION(
/* description */ ('STEP AP242 Edition 2',
'CAx-IF Rec.Pracs.---Representation and Presentation of Product Manufa
cturing Information (PMI)---4.0---2014-10-13',
'CAx-IF Rec.Pracs.---3D Tessellated Geometry---0.4---2014-09-14','2;1',
'CAx-IF Rec.Pracs.---User Defined Attributes---1.5---2016-08-15'),
/* implementation_level */ '2;1');

FILE_NAME(
/* name */ 'CellToGobildaAdapter - Part 1',
/* time_stamp */ '2026-07-28T04:41:54Z',
/* author */ (''),
/* organization */ (''),
/* preprocessor_version */ 'ST-DEVELOPER v20',
/* originating_system */ 'ONSHAPE BY PTC INC, 1.218',
/* authorisation */ '  ');

FILE_SCHEMA (('AP242_MANAGED_MODEL_BASED_3D_ENGINEERING_MIM_LF { 1 0 10303 442 3 1 4 }'));
ENDSEC;

DATA;
#10=SHAPE_REPRESENTATION_RELATIONSHIP('','',#311,#11);
#11=ADVANCED_BREP_SHAPE_REPRESENTATION('',(#309),#521);
#12=CIRCLE('',#315,0.005);
#13=CIRCLE('',#316,0.005);
#14=CIRCLE('',#319,0.005);
#15=CIRCLE('',#320,0.005);
#16=CIRCLE('',#323,0.005);
#17=CIRCLE('',#324,0.005);
#18=CIRCLE('',#327,0.002);
#19=CIRCLE('',#328,0.002);
#20=CIRCLE('',#330,0.002);
#21=CIRCLE('',#331,0.002);
#22=CIRCLE('',#333,0.002);
#23=CIRCLE('',#334,0.002);
#24=CIRCLE('',#336,0.002);
#25=CIRCLE('',#337,0.002);
#26=CIRCLE('',#339,0.002);
#27=CIRCLE('',#340,0.002);
#28=CIRCLE('',#342,0.002);
#29=CIRCLE('',#343,0.002);
#30=CIRCLE('',#345,0.005);
#31=CIRCLE('',#346,0.005);
#32=CYLINDRICAL_SURFACE('',#314,0.005);
#33=CYLINDRICAL_SURFACE('',#318,0.005);
#34=CYLINDRICAL_SURFACE('',#322,0.005);
#35=CYLINDRICAL_SURFACE('',#326,0.002);
#36=CYLINDRICAL_SURFACE('',#329,0.002);
#37=CYLINDRICAL_SURFACE('',#332,0.002);
#38=CYLINDRICAL_SURFACE('',#335,0.002);
#39=CYLINDRICAL_SURFACE('',#338,0.002);
#40=CYLINDRICAL_SURFACE('',#341,0.002);
#41=CYLINDRICAL_SURFACE('',#344,0.005);
#42=ORIENTED_EDGE('',*,*,#114,.F.);
#43=ORIENTED_EDGE('',*,*,#115,.F.);
#44=ORIENTED_EDGE('',*,*,#116,.T.);
#45=ORIENTED_EDGE('',*,*,#117,.T.);
#46=ORIENTED_EDGE('',*,*,#118,.T.);
#47=ORIENTED_EDGE('',*,*,#119,.F.);
#48=ORIENTED_EDGE('',*,*,#120,.F.);
#49=ORIENTED_EDGE('',*,*,#115,.T.);
#50=ORIENTED_EDGE('',*,*,#121,.F.);
#51=ORIENTED_EDGE('',*,*,#122,.F.);
#52=ORIENTED_EDGE('',*,*,#123,.T.);
#53=ORIENTED_EDGE('',*,*,#119,.T.);
#54=ORIENTED_EDGE('',*,*,#124,.T.);
#55=ORIENTED_EDGE('',*,*,#125,.F.);
#56=ORIENTED_EDGE('',*,*,#126,.F.);
#57=ORIENTED_EDGE('',*,*,#122,.T.);
#58=ORIENTED_EDGE('',*,*,#127,.T.);
#59=ORIENTED_EDGE('',*,*,#128,.F.);
#60=ORIENTED_EDGE('',*,*,#129,.F.);
#61=ORIENTED_EDGE('',*,*,#125,.T.);
#62=ORIENTED_EDGE('',*,*,#130,.T.);
#63=ORIENTED_EDGE('',*,*,#131,.F.);
#64=ORIENTED_EDGE('',*,*,#132,.F.);
#65=ORIENTED_EDGE('',*,*,#128,.T.);
#66=ORIENTED_EDGE('',*,*,#133,.T.);
#67=ORIENTED_EDGE('',*,*,#134,.F.);
#68=ORIENTED_EDGE('',*,*,#135,.F.);
#69=ORIENTED_EDGE('',*,*,#131,.T.);
#70=ORIENTED_EDGE('',*,*,#136,.T.);
#71=ORIENTED_EDGE('',*,*,#137,.F.);
#72=ORIENTED_EDGE('',*,*,#138,.T.);
#73=ORIENTED_EDGE('',*,*,#139,.F.);
#74=ORIENTED_EDGE('',*,*,#140,.T.);
#75=ORIENTED_EDGE('',*,*,#141,.F.);
#76=ORIENTED_EDGE('',*,*,#142,.T.);
#77=ORIENTED_EDGE('',*,*,#143,.F.);
#78=ORIENTED_EDGE('',*,*,#144,.T.);
#79=ORIENTED_EDGE('',*,*,#145,.F.);
#80=ORIENTED_EDGE('',*,*,#146,.T.);
#81=ORIENTED_EDGE('',*,*,#147,.F.);
#82=ORIENTED_EDGE('',*,*,#148,.T.);
#83=ORIENTED_EDGE('',*,*,#117,.F.);
#84=ORIENTED_EDGE('',*,*,#149,.F.);
#85=ORIENTED_EDGE('',*,*,#134,.T.);
#86=ORIENTED_EDGE('',*,*,#146,.F.);
#87=ORIENTED_EDGE('',*,*,#144,.F.);
#88=ORIENTED_EDGE('',*,*,#142,.F.);
#89=ORIENTED_EDGE('',*,*,#140,.F.);
#90=ORIENTED_EDGE('',*,*,#138,.F.);
#91=ORIENTED_EDGE('',*,*,#136,.F.);
#92=ORIENTED_EDGE('',*,*,#116,.F.);
#93=ORIENTED_EDGE('',*,*,#120,.T.);
#94=ORIENTED_EDGE('',*,*,#123,.F.);
#95=ORIENTED_EDGE('',*,*,#126,.T.);
#96=ORIENTED_EDGE('',*,*,#129,.T.);
#97=ORIENTED_EDGE('',*,*,#132,.T.);
#98=ORIENTED_EDGE('',*,*,#135,.T.);
#99=ORIENTED_EDGE('',*,*,#149,.T.);
#100=ORIENTED_EDGE('',*,*,#147,.T.);
#101=ORIENTED_EDGE('',*,*,#145,.T.);
#102=ORIENTED_EDGE('',*,*,#143,.T.);
#103=ORIENTED_EDGE('',*,*,#141,.T.);
#104=ORIENTED_EDGE('',*,*,#139,.T.);
#105=ORIENTED_EDGE('',*,*,#137,.T.);
#106=ORIENTED_EDGE('',*,*,#114,.T.);
#107=ORIENTED_EDGE('',*,*,#148,.F.);
#108=ORIENTED_EDGE('',*,*,#133,.F.);
#109=ORIENTED_EDGE('',*,*,#130,.F.);
#110=ORIENTED_EDGE('',*,*,#127,.F.);
#111=ORIENTED_EDGE('',*,*,#124,.F.);
#112=ORIENTED_EDGE('',*,*,#121,.T.);
#113=ORIENTED_EDGE('',*,*,#118,.F.);
#114=EDGE_CURVE('',#150,#151,#178,.T.);
#115=EDGE_CURVE('',#152,#150,#179,.T.);
#116=EDGE_CURVE('',#152,#153,#180,.T.);
#117=EDGE_CURVE('',#153,#151,#181,.T.);
#118=EDGE_CURVE('',#150,#154,#12,.T.);
#119=EDGE_CURVE('',#155,#154,#182,.T.);
#120=EDGE_CURVE('',#152,#155,#13,.T.);
#121=EDGE_CURVE('',#156,#154,#183,.T.);
#122=EDGE_CURVE('',#157,#156,#184,.T.);
#123=EDGE_CURVE('',#157,#155,#185,.T.);
#124=EDGE_CURVE('',#156,#158,#14,.T.);
#125=EDGE_CURVE('',#159,#158,#186,.T.);
#126=EDGE_CURVE('',#157,#159,#15,.T.);
#127=EDGE_CURVE('',#158,#160,#187,.T.);
#128=EDGE_CURVE('',#161,#160,#188,.T.);
#129=EDGE_CURVE('',#159,#161,#189,.T.);
#130=EDGE_CURVE('',#160,#162,#16,.T.);
#131=EDGE_CURVE('',#163,#162,#190,.T.);
#132=EDGE_CURVE('',#161,#163,#17,.T.);
#133=EDGE_CURVE('',#162,#164,#191,.T.);
#134=EDGE_CURVE('',#165,#164,#192,.T.);
#135=EDGE_CURVE('',#163,#165,#193,.T.);
#136=EDGE_CURVE('',#166,#166,#18,.T.);
#137=EDGE_CURVE('',#167,#167,#19,.T.);
#138=EDGE_CURVE('',#168,#168,#20,.T.);
#139=EDGE_CURVE('',#169,#169,#21,.T.);
#140=EDGE_CURVE('',#170,#170,#22,.T.);
#141=EDGE_CURVE('',#171,#171,#23,.T.);
#142=EDGE_CURVE('',#172,#172,#24,.T.);
#143=EDGE_CURVE('',#173,#173,#25,.T.);
#144=EDGE_CURVE('',#174,#174,#26,.T.);
#145=EDGE_CURVE('',#175,#175,#27,.T.);
#146=EDGE_CURVE('',#176,#176,#28,.T.);
#147=EDGE_CURVE('',#177,#177,#29,.T.);
#148=EDGE_CURVE('',#164,#151,#30,.T.);
#149=EDGE_CURVE('',#165,#153,#31,.T.);
#150=VERTEX_POINT('',#442);
#151=VERTEX_POINT('',#443);
#152=VERTEX_POINT('',#445);
#153=VERTEX_POINT('',#447);
#154=VERTEX_POINT('',#451);
#155=VERTEX_POINT('',#453);
#156=VERTEX_POINT('',#457);
#157=VERTEX_POINT('',#459);
#158=VERTEX_POINT('',#463);
#159=VERTEX_POINT('',#465);
#160=VERTEX_POINT('',#469);
#161=VERTEX_POINT('',#471);
#162=VERTEX_POINT('',#475);
#163=VERTEX_POINT('',#477);
#164=VERTEX_POINT('',#481);
#165=VERTEX_POINT('',#483);
#166=VERTEX_POINT('',#487);
#167=VERTEX_POINT('',#489);
#168=VERTEX_POINT('',#492);
#169=VERTEX_POINT('',#494);
#170=VERTEX_POINT('',#497);
#171=VERTEX_POINT('',#499);
#172=VERTEX_POINT('',#502);
#173=VERTEX_POINT('',#504);
#174=VERTEX_POINT('',#507);
#175=VERTEX_POINT('',#509);
#176=VERTEX_POINT('',#512);
#177=VERTEX_POINT('',#514);
#178=LINE('',#441,#194);
#179=LINE('',#444,#195);
#180=LINE('',#446,#196);
#181=LINE('',#448,#197);
#182=LINE('',#452,#198);
#183=LINE('',#456,#199);
#184=LINE('',#458,#200);
#185=LINE('',#460,#201);
#186=LINE('',#464,#202);
#187=LINE('',#468,#203);
#188=LINE('',#470,#204);
#189=LINE('',#472,#205);
#190=LINE('',#476,#206);
#191=LINE('',#480,#207);
#192=LINE('',#482,#208);
#193=LINE('',#484,#209);
#194=VECTOR('',#353,1.);
#195=VECTOR('',#354,1.);
#196=VECTOR('',#355,1.);
#197=VECTOR('',#356,1.);
#198=VECTOR('',#361,1.);
#199=VECTOR('',#366,1.);
#200=VECTOR('',#367,1.);
#201=VECTOR('',#368,1.);
#202=VECTOR('',#373,1.);
#203=VECTOR('',#378,1.);
#204=VECTOR('',#379,1.);
#205=VECTOR('',#380,1.);
#206=VECTOR('',#385,1.);
#207=VECTOR('',#390,1.);
#208=VECTOR('',#391,1.);
#209=VECTOR('',#392,1.);
#210=EDGE_LOOP('',(#42,#43,#44,#45));
#211=EDGE_LOOP('',(#46,#47,#48,#49));
#212=EDGE_LOOP('',(#50,#51,#52,#53));
#213=EDGE_LOOP('',(#54,#55,#56,#57));
#214=EDGE_LOOP('',(#58,#59,#60,#61));
#215=EDGE_LOOP('',(#62,#63,#64,#65));
#216=EDGE_LOOP('',(#66,#67,#68,#69));
#217=EDGE_LOOP('',(#70));
#218=EDGE_LOOP('',(#71));
#219=EDGE_LOOP('',(#72));
#220=EDGE_LOOP('',(#73));
#221=EDGE_LOOP('',(#74));
#222=EDGE_LOOP('',(#75));
#223=EDGE_LOOP('',(#76));
#224=EDGE_LOOP('',(#77));
#225=EDGE_LOOP('',(#78));
#226=EDGE_LOOP('',(#79));
#227=EDGE_LOOP('',(#80));
#228=EDGE_LOOP('',(#81));
#229=EDGE_LOOP('',(#82,#83,#84,#85));
#230=EDGE_LOOP('',(#86));
#231=EDGE_LOOP('',(#87));
#232=EDGE_LOOP('',(#88));
#233=EDGE_LOOP('',(#89));
#234=EDGE_LOOP('',(#90));
#235=EDGE_LOOP('',(#91));
#236=EDGE_LOOP('',(#92,#93,#94,#95,#96,#97,#98,#99));
#237=EDGE_LOOP('',(#100));
#238=EDGE_LOOP('',(#101));
#239=EDGE_LOOP('',(#102));
#240=EDGE_LOOP('',(#103));
#241=EDGE_LOOP('',(#104));
#242=EDGE_LOOP('',(#105));
#243=EDGE_LOOP('',(#106,#107,#108,#109,#110,#111,#112,#113));
#244=FACE_BOUND('',#210,.T.);
#245=FACE_BOUND('',#211,.T.);
#246=FACE_BOUND('',#212,.T.);
#247=FACE_BOUND('',#213,.T.);
#248=FACE_BOUND('',#214,.T.);
#249=FACE_BOUND('',#215,.T.);
#250=FACE_BOUND('',#216,.T.);
#251=FACE_BOUND('',#217,.T.);
#252=FACE_BOUND('',#218,.T.);
#253=FACE_BOUND('',#219,.T.);
#254=FACE_BOUND('',#220,.T.);
#255=FACE_BOUND('',#221,.T.);
#256=FACE_BOUND('',#222,.T.);
#257=FACE_BOUND('',#223,.T.);
#258=FACE_BOUND('',#224,.T.);
#259=FACE_BOUND('',#225,.T.);
#260=FACE_BOUND('',#226,.T.);
#261=FACE_BOUND('',#227,.T.);
#262=FACE_BOUND('',#228,.T.);
#263=FACE_BOUND('',#229,.T.);
#264=FACE_BOUND('',#230,.T.);
#265=FACE_BOUND('',#231,.T.);
#266=FACE_BOUND('',#232,.T.);
#267=FACE_BOUND('',#233,.T.);
#268=FACE_BOUND('',#234,.T.);
#269=FACE_BOUND('',#235,.T.);
#270=FACE_BOUND('',#236,.T.);
#271=FACE_BOUND('',#237,.T.);
#272=FACE_BOUND('',#238,.T.);
#273=FACE_BOUND('',#239,.T.);
#274=FACE_BOUND('',#240,.T.);
#275=FACE_BOUND('',#241,.T.);
#276=FACE_BOUND('',#242,.T.);
#277=FACE_BOUND('',#243,.T.);
#278=PLANE('',#313);
#279=PLANE('',#317);
#280=PLANE('',#321);
#281=PLANE('',#325);
#282=PLANE('',#347);
#283=PLANE('',#348);
#284=ADVANCED_FACE('',(#244),#278,.T.);
#285=ADVANCED_FACE('',(#245),#32,.T.);
#286=ADVANCED_FACE('',(#246),#279,.T.);
#287=ADVANCED_FACE('',(#247),#33,.T.);
#288=ADVANCED_FACE('',(#248),#280,.F.);
#289=ADVANCED_FACE('',(#249),#34,.T.);
#290=ADVANCED_FACE('',(#250),#281,.F.);
#291=ADVANCED_FACE('',(#251,#252),#35,.F.);
#292=ADVANCED_FACE('',(#253,#254),#36,.F.);
#293=ADVANCED_FACE('',(#255,#256),#37,.F.);
#294=ADVANCED_FACE('',(#257,#258),#38,.F.);
#295=ADVANCED_FACE('',(#259,#260),#39,.F.);
#296=ADVANCED_FACE('',(#261,#262),#40,.F.);
#297=ADVANCED_FACE('',(#263),#41,.T.);
#298=ADVANCED_FACE('',(#264,#265,#266,#267,#268,#269,#270),#282,.T.);
#299=ADVANCED_FACE('',(#271,#272,#273,#274,#275,#276,#277),#283,.F.);
#300=CLOSED_SHELL('',(#284,#285,#286,#287,#288,#289,#290,#291,#292,#293,
#294,#295,#296,#297,#298,#299));
#301=STYLED_ITEM('',(#302),#309);
#302=PRESENTATION_STYLE_ASSIGNMENT((#303));
#303=SURFACE_STYLE_USAGE(.BOTH.,#304);
#304=SURFACE_SIDE_STYLE('',(#305));
#305=SURFACE_STYLE_FILL_AREA(#306);
#306=FILL_AREA_STYLE('',(#307));
#307=FILL_AREA_STYLE_COLOUR('',#308);
#308=COLOUR_RGB('',0.615686274509804,0.811764705882353,0.929411764705882);
#309=MANIFOLD_SOLID_BREP('Part 1',#300);
#310=SHAPE_DEFINITION_REPRESENTATION(#526,#311);
#311=SHAPE_REPRESENTATION('Part 1',(#312),#521);
#312=AXIS2_PLACEMENT_3D('',#439,#349,#350);
#313=AXIS2_PLACEMENT_3D('',#440,#351,#352);
#314=AXIS2_PLACEMENT_3D('',#449,#357,#358);
#315=AXIS2_PLACEMENT_3D('',#450,#359,#360);
#316=AXIS2_PLACEMENT_3D('',#454,#362,#363);
#317=AXIS2_PLACEMENT_3D('',#455,#364,#365);
#318=AXIS2_PLACEMENT_3D('',#461,#369,#370);
#319=AXIS2_PLACEMENT_3D('',#462,#371,#372);
#320=AXIS2_PLACEMENT_3D('',#466,#374,#375);
#321=AXIS2_PLACEMENT_3D('',#467,#376,#377);
#322=AXIS2_PLACEMENT_3D('',#473,#381,#382);
#323=AXIS2_PLACEMENT_3D('',#474,#383,#384);
#324=AXIS2_PLACEMENT_3D('',#478,#386,#387);
#325=AXIS2_PLACEMENT_3D('',#479,#388,#389);
#326=AXIS2_PLACEMENT_3D('',#485,#393,#394);
#327=AXIS2_PLACEMENT_3D('',#486,#395,#396);
#328=AXIS2_PLACEMENT_3D('',#488,#397,#398);
#329=AXIS2_PLACEMENT_3D('',#490,#399,#400);
#330=AXIS2_PLACEMENT_3D('',#491,#401,#402);
#331=AXIS2_PLACEMENT_3D('',#493,#403,#404);
#332=AXIS2_PLACEMENT_3D('',#495,#405,#406);
#333=AXIS2_PLACEMENT_3D('',#496,#407,#408);
#334=AXIS2_PLACEMENT_3D('',#498,#409,#410);
#335=AXIS2_PLACEMENT_3D('',#500,#411,#412);
#336=AXIS2_PLACEMENT_3D('',#501,#413,#414);
#337=AXIS2_PLACEMENT_3D('',#503,#415,#416);
#338=AXIS2_PLACEMENT_3D('',#505,#417,#418);
#339=AXIS2_PLACEMENT_3D('',#506,#419,#420);
#340=AXIS2_PLACEMENT_3D('',#508,#421,#422);
#341=AXIS2_PLACEMENT_3D('',#510,#423,#424);
#342=AXIS2_PLACEMENT_3D('',#511,#425,#426);
#343=AXIS2_PLACEMENT_3D('',#513,#427,#428);
#344=AXIS2_PLACEMENT_3D('',#515,#429,#430);
#345=AXIS2_PLACEMENT_3D('',#516,#431,#432);
#346=AXIS2_PLACEMENT_3D('',#517,#433,#434);
#347=AXIS2_PLACEMENT_3D('',#518,#435,#436);
#348=AXIS2_PLACEMENT_3D('',#519,#437,#438);
#349=DIRECTION('',(0.,0.,1.));
#350=DIRECTION('',(1.,0.,0.));
#351=DIRECTION('',(1.,0.,1.0842021724855E-16));
#352=DIRECTION('',(1.0842021724855E-16,0.,-1.));
#353=DIRECTION('',(1.0842021724855E-16,0.,-1.));
#354=DIRECTION('',(0.,1.,0.));
#355=DIRECTION('',(1.0842021724855E-16,0.,-1.));
#356=DIRECTION('',(0.,1.,0.));
#357=DIRECTION('',(0.,1.,0.));
#358=DIRECTION('',(0.,0.,1.));
#359=DIRECTION('',(0.,-1.,0.));
#360=DIRECTION('',(0.,0.,-1.));
#361=DIRECTION('',(0.,1.,0.));
#362=DIRECTION('',(0.,-1.,0.));
#363=DIRECTION('',(0.,0.,-1.));
#364=DIRECTION('',(0.,0.,1.));
#365=DIRECTION('',(1.,0.,0.));
#366=DIRECTION('',(1.,0.,0.));
#367=DIRECTION('',(0.,1.,0.));
#368=DIRECTION('',(1.,0.,0.));
#369=DIRECTION('',(0.,1.,0.));
#370=DIRECTION('',(0.,0.,1.));
#371=DIRECTION('',(0.,-1.,0.));
#372=DIRECTION('',(0.,0.,-1.));
#373=DIRECTION('',(0.,1.,0.));
#374=DIRECTION('',(0.,-1.,0.));
#375=DIRECTION('',(0.,0.,-1.));
#376=DIRECTION('',(1.,0.,1.0842021724855E-16));
#377=DIRECTION('',(1.0842021724855E-16,0.,-1.));
#378=DIRECTION('',(1.0842021724855E-16,0.,-1.));
#379=DIRECTION('',(0.,1.,0.));
#380=DIRECTION('',(1.0842021724855E-16,0.,-1.));
#381=DIRECTION('',(0.,1.,0.));
#382=DIRECTION('',(0.,0.,1.));
#383=DIRECTION('',(0.,-1.,0.));
#384=DIRECTION('',(0.,0.,-1.));
#385=DIRECTION('',(0.,1.,0.));
#386=DIRECTION('',(0.,-1.,0.));
#387=DIRECTION('',(0.,0.,-1.));
#388=DIRECTION('',(0.,0.,1.));
#389=DIRECTION('',(1.,0.,0.));
#390=DIRECTION('',(1.,0.,0.));
#391=DIRECTION('',(0.,1.,0.));
#392=DIRECTION('',(1.,0.,0.));
#393=DIRECTION('',(0.,1.,0.));
#394=DIRECTION('',(0.,0.,1.));
#395=DIRECTION('',(0.,-1.,0.));
#396=DIRECTION('',(0.,0.,-1.));
#397=DIRECTION('',(0.,-1.,0.));
#398=DIRECTION('',(0.,0.,-1.));
#399=DIRECTION('',(0.,1.,0.));
#400=DIRECTION('',(0.,0.,1.));
#401=DIRECTION('',(0.,-1.,0.));
#402=DIRECTION('',(0.,0.,-1.));
#403=DIRECTION('',(0.,-1.,0.));
#404=DIRECTION('',(0.,0.,-1.));
#405=DIRECTION('',(0.,1.,0.));
#406=DIRECTION('',(0.,0.,1.));
#407=DIRECTION('',(0.,-1.,0.));
#408=DIRECTION('',(0.,0.,-1.));
#409=DIRECTION('',(0.,-1.,0.));
#410=DIRECTION('',(0.,0.,-1.));
#411=DIRECTION('',(0.,1.,0.));
#412=DIRECTION('',(0.,0.,1.));
#413=DIRECTION('',(0.,-1.,0.));
#414=DIRECTION('',(0.,0.,-1.));
#415=DIRECTION('',(0.,-1.,0.));
#416=DIRECTION('',(0.,0.,-1.));
#417=DIRECTION('',(0.,1.,0.));
#418=DIRECTION('',(0.,0.,1.));
#419=DIRECTION('',(0.,-1.,0.));
#420=DIRECTION('',(0.,0.,-1.));
#421=DIRECTION('',(0.,-1.,0.));
#422=DIRECTION('',(0.,0.,-1.));
#423=DIRECTION('',(0.,1.,0.));
#424=DIRECTION('',(0.,0.,1.));
#425=DIRECTION('',(0.,-1.,0.));
#426=DIRECTION('',(0.,0.,-1.));
#427=DIRECTION('',(0.,-1.,0.));
#428=DIRECTION('',(0.,0.,-1.));
#429=DIRECTION('',(0.,1.,0.));
#430=DIRECTION('',(0.,0.,1.));
#431=DIRECTION('',(0.,-1.,0.));
#432=DIRECTION('',(0.,0.,-1.));
#433=DIRECTION('',(0.,-1.,0.));
#434=DIRECTION('',(0.,0.,-1.));
#435=DIRECTION('',(0.,-1.,0.));
#436=DIRECTION('',(1.,0.,0.));
#437=DIRECTION('',(0.,-1.,0.));
#438=DIRECTION('',(1.,0.,0.));
#439=CARTESIAN_POINT('',(0.,0.,0.));
#440=CARTESIAN_POINT('',(0.022,-0.005,-0.002));
#441=CARTESIAN_POINT('',(0.022,0.,-0.002));
#442=CARTESIAN_POINT('',(0.022,0.,0.014));
#443=CARTESIAN_POINT('',(0.022,0.,-0.018));
#444=CARTESIAN_POINT('',(0.022,-0.005,0.014));
#445=CARTESIAN_POINT('',(0.022,-0.005,0.014));
#446=CARTESIAN_POINT('',(0.022,-0.005,-0.002));
#447=CARTESIAN_POINT('',(0.022,-0.005,-0.018));
#448=CARTESIAN_POINT('',(0.022,-0.005,-0.018));
#449=CARTESIAN_POINT('',(0.017,-0.005,0.014));
#450=CARTESIAN_POINT('',(0.017,0.,0.014));
#451=CARTESIAN_POINT('',(0.017,0.,0.019));
#452=CARTESIAN_POINT('',(0.017,-0.005,0.019));
#453=CARTESIAN_POINT('',(0.017,-0.005,0.019));
#454=CARTESIAN_POINT('',(0.017,-0.005,0.014));
#455=CARTESIAN_POINT('',(0.,-0.005,0.019));
#456=CARTESIAN_POINT('',(0.,0.,0.019));
#457=CARTESIAN_POINT('',(-0.017,0.,0.019));
#458=CARTESIAN_POINT('',(-0.017,-0.005,0.019));
#459=CARTESIAN_POINT('',(-0.017,-0.005,0.019));
#460=CARTESIAN_POINT('',(0.,-0.005,0.019));
#461=CARTESIAN_POINT('',(-0.017,-0.005,0.014));
#462=CARTESIAN_POINT('',(-0.017,0.,0.014));
#463=CARTESIAN_POINT('',(-0.022,0.,0.014));
#464=CARTESIAN_POINT('',(-0.022,-0.005,0.014));
#465=CARTESIAN_POINT('',(-0.022,-0.005,0.014));
#466=CARTESIAN_POINT('',(-0.017,-0.005,0.014));
#467=CARTESIAN_POINT('',(-0.022,-0.005,-0.002));
#468=CARTESIAN_POINT('',(-0.022,0.,-0.002));
#469=CARTESIAN_POINT('',(-0.022,0.,-0.018));
#470=CARTESIAN_POINT('',(-0.022,-0.005,-0.018));
#471=CARTESIAN_POINT('',(-0.022,-0.005,-0.018));
#472=CARTESIAN_POINT('',(-0.022,-0.005,-0.002));
#473=CARTESIAN_POINT('',(-0.017,-0.005,-0.018));
#474=CARTESIAN_POINT('',(-0.017,0.,-0.018));
#475=CARTESIAN_POINT('',(-0.017,0.,-0.023));
#476=CARTESIAN_POINT('',(-0.017,-0.005,-0.023));
#477=CARTESIAN_POINT('',(-0.017,-0.005,-0.023));
#478=CARTESIAN_POINT('',(-0.017,-0.005,-0.018));
#479=CARTESIAN_POINT('',(6.93889390390723E-18,-0.005,-0.023));
#480=CARTESIAN_POINT('',(6.93889390390723E-18,0.,-0.023));
#481=CARTESIAN_POINT('',(0.017,0.,-0.023));
#482=CARTESIAN_POINT('',(0.017,-0.005,-0.023));
#483=CARTESIAN_POINT('',(0.017,-0.005,-0.023));
#484=CARTESIAN_POINT('',(6.93889390390723E-18,-0.005,-0.023));
#485=CARTESIAN_POINT('',(4.33680868994202E-19,-0.005,0.01));
#486=CARTESIAN_POINT('',(4.33680868994202E-19,-0.005,0.01));
#487=CARTESIAN_POINT('',(4.33680868994202E-19,-0.005,0.008));
#488=CARTESIAN_POINT('',(4.33680868994202E-19,0.,0.01));
#489=CARTESIAN_POINT('',(4.33680868994202E-19,0.,0.008));
#490=CARTESIAN_POINT('',(0.,-0.005,1.22464679914735E-19));
#491=CARTESIAN_POINT('',(0.,-0.005,1.22464679914735E-19));
#492=CARTESIAN_POINT('',(0.,-0.005,-0.002));
#493=CARTESIAN_POINT('',(0.,0.,1.22464679914735E-19));
#494=CARTESIAN_POINT('',(0.,0.,-0.002));
#495=CARTESIAN_POINT('',(-0.016,-0.005,0.014));
#496=CARTESIAN_POINT('',(-0.016,-0.005,0.014));
#497=CARTESIAN_POINT('',(-0.016,-0.005,0.012));
#498=CARTESIAN_POINT('',(-0.016,0.,0.014));
#499=CARTESIAN_POINT('',(-0.016,0.,0.012));
#500=CARTESIAN_POINT('',(0.016,-0.005,0.014));
#501=CARTESIAN_POINT('',(0.016,-0.005,0.014));
#502=CARTESIAN_POINT('',(0.016,-0.005,0.012));
#503=CARTESIAN_POINT('',(0.016,0.,0.014));
#504=CARTESIAN_POINT('',(0.016,0.,0.012));
#505=CARTESIAN_POINT('',(0.016,-0.005,-0.018));
#506=CARTESIAN_POINT('',(0.016,-0.005,-0.018));
#507=CARTESIAN_POINT('',(0.016,-0.005,-0.02));
#508=CARTESIAN_POINT('',(0.016,0.,-0.018));
#509=CARTESIAN_POINT('',(0.016,0.,-0.02));
#510=CARTESIAN_POINT('',(-0.016,-0.005,-0.018));
#511=CARTESIAN_POINT('',(-0.016,-0.005,-0.018));
#512=CARTESIAN_POINT('',(-0.016,-0.005,-0.02));
#513=CARTESIAN_POINT('',(-0.016,0.,-0.018));
#514=CARTESIAN_POINT('',(-0.016,0.,-0.02));
#515=CARTESIAN_POINT('',(0.017,-0.005,-0.018));
#516=CARTESIAN_POINT('',(0.017,0.,-0.018));
#517=CARTESIAN_POINT('',(0.017,-0.005,-0.018));
#518=CARTESIAN_POINT('',(3.46944695195361E-18,-0.005,-0.002));
#519=CARTESIAN_POINT('',(3.46944695195361E-18,0.,-0.002));
#520=MECHANICAL_DESIGN_GEOMETRIC_PRESENTATION_REPRESENTATION('',(#301),
#521);
#521=(
GEOMETRIC_REPRESENTATION_CONTEXT(3)
GLOBAL_UNCERTAINTY_ASSIGNED_CONTEXT((#522))
GLOBAL_UNIT_ASSIGNED_CONTEXT((#525,#524,#523))
REPRESENTATION_CONTEXT('Part 1','TOP_LEVEL_ASSEMBLY_PART')
);
#522=UNCERTAINTY_MEASURE_WITH_UNIT(LENGTH_MEASURE(1.E-8),#525,
'DISTANCE_ACCURACY_VALUE','Maximum Tolerance applied to model');
#523=(
NAMED_UNIT(*)
SI_UNIT($,.STERADIAN.)
SOLID_ANGLE_UNIT()
);
#524=(
NAMED_UNIT(*)
PLANE_ANGLE_UNIT()
SI_UNIT($,.RADIAN.)
);
#525=(
LENGTH_UNIT()
NAMED_UNIT(*)
SI_UNIT($,.METRE.)
);
#526=PRODUCT_DEFINITION_SHAPE('','',#527);
#527=PRODUCT_DEFINITION('','',#529,#528);
#528=PRODUCT_DEFINITION_CONTEXT('',#535,'design');
#529=PRODUCT_DEFINITION_FORMATION_WITH_SPECIFIED_SOURCE('','',#531,
 .NOT_KNOWN.);
#530=PRODUCT_RELATED_PRODUCT_CATEGORY('','',(#531));
#531=PRODUCT('Part 1','Part 1','Part 1',(#533));
#532=PRODUCT_CATEGORY('','');
#533=PRODUCT_CONTEXT('',#535,'mechanical');
#534=APPLICATION_PROTOCOL_DEFINITION('international standard',
'ap242_managed_model_based_3d_engineering',2020,#535);
#535=APPLICATION_CONTEXT('managed model based 3d engineering');
ENDSEC;
END-ISO-10303-21;
