ISO-10303-21;
HEADER;
/* Generated by software containing ST-Developer
 * from STEP Tools, Inc. (www.steptools.com) 
 */
/* OPTION: using custom renumber hook */

FILE_DESCRIPTION(
/* description */ ('STEP AP242 Edition 2',
'CAx-IF Rec.Pracs.---Representation and Presentation of Product Manufa
cturing Information (PMI)---4.0---2014-10-13',
'CAx-IF Rec.Pracs.---3D Tessellated Geometry---0.4---2014-09-14','2;1',
'CAx-IF Rec.Pracs.---User Defined Attributes---1.5---2016-08-15'),
/* implementation_level */ '2;1');

FILE_NAME(
/* name */ '6a68331c8ce625604a90d815',
/* time_stamp */ '2026-07-28T04:42:04Z',
/* author */ (''),
/* organization */ (''),
/* preprocessor_version */ 'ST-DEVELOPER v20',
/* originating_system */ 'ONSHAPE BY PTC INC, 1.218',
/* authorisation */ '  ');

FILE_SCHEMA (('AP242_MANAGED_MODEL_BASED_3D_ENGINEERING_MIM_LF { 1 0 10303 442 3 1 4 }'));
ENDSEC;

DATA;
#10=CONTEXT_DEPENDENT_SHAPE_REPRESENTATION(#12,#636);
#11=NEXT_ASSEMBLY_USAGE_OCCURRENCE('NAUO1','Rod','Rod',#637,#638,'');
#12=(
REPRESENTATION_RELATIONSHIP(' ',' ',#369,#368)
REPRESENTATION_RELATIONSHIP_WITH_TRANSFORMATION(#13)
SHAPE_REPRESENTATION_RELATIONSHIP()
);
#13=ITEM_DEFINED_TRANSFORMATION(' ',' ',#370,#417);
#14=SHAPE_REPRESENTATION_RELATIONSHIP('','',#369,#15);
#15=ADVANCED_BREP_SHAPE_REPRESENTATION('',(#365),#628);
#16=TOROIDAL_SURFACE('',#380,0.00275,0.00025);
#17=TOROIDAL_SURFACE('',#383,0.00275,0.00025);
#18=TOROIDAL_SURFACE('',#386,0.00225,0.00025);
#19=TOROIDAL_SURFACE('',#391,0.00225,0.00025);
#20=TOROIDAL_SURFACE('',#395,0.00225,0.00025);
#21=TOROIDAL_SURFACE('',#399,0.00225,0.00025);
#22=TOROIDAL_SURFACE('',#403,0.00275,0.00025);
#23=TOROIDAL_SURFACE('',#409,0.00275,0.00025);
#24=CYLINDRICAL_SURFACE('',#378,0.005);
#25=CYLINDRICAL_SURFACE('',#393,0.002);
#26=CYLINDRICAL_SURFACE('',#397,0.002);
#27=CYLINDRICAL_SURFACE('',#401,0.0025);
#28=CYLINDRICAL_SURFACE('',#405,0.0025);
#29=CYLINDRICAL_SURFACE('',#410,0.0005);
#30=CYLINDRICAL_SURFACE('',#415,0.005);
#31=CYLINDRICAL_SURFACE('',#416,0.0005);
#32=LINE('',#540,#48);
#33=LINE('',#543,#49);
#34=LINE('',#545,#50);
#35=LINE('',#547,#51);
#36=LINE('',#549,#52);
#37=LINE('',#551,#53);
#38=LINE('',#553,#54);
#39=LINE('',#555,#55);
#40=LINE('',#557,#56);
#41=LINE('',#559,#57);
#42=LINE('',#561,#58);
#43=LINE('',#563,#59);
#44=LINE('',#584,#60);
#45=LINE('',#612,#61);
#46=LINE('',#615,#62);
#47=LINE('',#623,#63);
#48=VECTOR('',#430,1.);
#49=VECTOR('',#431,1.);
#50=VECTOR('',#432,1.);
#51=VECTOR('',#433,1.);
#52=VECTOR('',#436,1.);
#53=VECTOR('',#437,1.);
#54=VECTOR('',#438,1.);
#55=VECTOR('',#441,1.);
#56=VECTOR('',#442,1.);
#57=VECTOR('',#443,1.);
#58=VECTOR('',#446,1.);
#59=VECTOR('',#447,1.);
#60=VECTOR('',#472,1.);
#61=VECTOR('',#509,1.);
#62=VECTOR('',#514,1.);
#63=VECTOR('',#525,1.);
#64=ORIENTED_EDGE('',*,*,#144,.F.);
#65=ORIENTED_EDGE('',*,*,#145,.T.);
#66=ORIENTED_EDGE('',*,*,#146,.F.);
#67=ORIENTED_EDGE('',*,*,#147,.T.);
#68=ORIENTED_EDGE('',*,*,#148,.T.);
#69=ORIENTED_EDGE('',*,*,#149,.T.);
#70=ORIENTED_EDGE('',*,*,#150,.T.);
#71=ORIENTED_EDGE('',*,*,#151,.T.);
#72=ORIENTED_EDGE('',*,*,#151,.F.);
#73=ORIENTED_EDGE('',*,*,#152,.T.);
#74=ORIENTED_EDGE('',*,*,#153,.F.);
#75=ORIENTED_EDGE('',*,*,#154,.F.);
#76=ORIENTED_EDGE('',*,*,#149,.F.);
#77=ORIENTED_EDGE('',*,*,#155,.T.);
#78=ORIENTED_EDGE('',*,*,#156,.F.);
#79=ORIENTED_EDGE('',*,*,#157,.F.);
#80=ORIENTED_EDGE('',*,*,#158,.F.);
#81=ORIENTED_EDGE('',*,*,#147,.F.);
#82=ORIENTED_EDGE('',*,*,#159,.F.);
#83=ORIENTED_EDGE('',*,*,#160,.F.);
#84=ORIENTED_EDGE('',*,*,#161,.T.);
#85=ORIENTED_EDGE('',*,*,#162,.T.);
#86=ORIENTED_EDGE('',*,*,#163,.T.);
#87=ORIENTED_EDGE('',*,*,#164,.T.);
#88=ORIENTED_EDGE('',*,*,#165,.T.);
#89=ORIENTED_EDGE('',*,*,#166,.T.);
#90=ORIENTED_EDGE('',*,*,#167,.F.);
#91=ORIENTED_EDGE('',*,*,#164,.F.);
#92=ORIENTED_EDGE('',*,*,#162,.F.);
#93=ORIENTED_EDGE('',*,*,#166,.F.);
#94=ORIENTED_EDGE('',*,*,#148,.F.);
#95=ORIENTED_EDGE('',*,*,#154,.T.);
#96=ORIENTED_EDGE('',*,*,#168,.F.);
#97=ORIENTED_EDGE('',*,*,#155,.F.);
#98=ORIENTED_EDGE('',*,*,#169,.T.);
#99=ORIENTED_EDGE('',*,*,#167,.T.);
#100=ORIENTED_EDGE('',*,*,#170,.F.);
#101=ORIENTED_EDGE('',*,*,#169,.F.);
#102=ORIENTED_EDGE('',*,*,#170,.T.);
#103=ORIENTED_EDGE('',*,*,#171,.T.);
#104=ORIENTED_EDGE('',*,*,#172,.F.);
#105=ORIENTED_EDGE('',*,*,#165,.F.);
#106=ORIENTED_EDGE('',*,*,#172,.T.);
#107=ORIENTED_EDGE('',*,*,#173,.T.);
#108=ORIENTED_EDGE('',*,*,#174,.F.);
#109=ORIENTED_EDGE('',*,*,#163,.F.);
#110=ORIENTED_EDGE('',*,*,#174,.T.);
#111=ORIENTED_EDGE('',*,*,#175,.T.);
#112=ORIENTED_EDGE('',*,*,#176,.F.);
#113=ORIENTED_EDGE('',*,*,#161,.F.);
#114=ORIENTED_EDGE('',*,*,#177,.F.);
#115=ORIENTED_EDGE('',*,*,#173,.F.);
#116=ORIENTED_EDGE('',*,*,#171,.F.);
#117=ORIENTED_EDGE('',*,*,#175,.F.);
#118=ORIENTED_EDGE('',*,*,#150,.F.);
#119=ORIENTED_EDGE('',*,*,#157,.T.);
#120=ORIENTED_EDGE('',*,*,#178,.F.);
#121=ORIENTED_EDGE('',*,*,#152,.F.);
#122=ORIENTED_EDGE('',*,*,#176,.T.);
#123=ORIENTED_EDGE('',*,*,#177,.T.);
#124=ORIENTED_EDGE('',*,*,#146,.T.);
#125=ORIENTED_EDGE('',*,*,#179,.T.);
#126=ORIENTED_EDGE('',*,*,#180,.T.);
#127=ORIENTED_EDGE('',*,*,#159,.T.);
#128=ORIENTED_EDGE('',*,*,#181,.F.);
#129=ORIENTED_EDGE('',*,*,#160,.T.);
#130=ORIENTED_EDGE('',*,*,#180,.F.);
#131=ORIENTED_EDGE('',*,*,#182,.T.);
#132=ORIENTED_EDGE('',*,*,#168,.T.);
#133=ORIENTED_EDGE('',*,*,#153,.T.);
#134=ORIENTED_EDGE('',*,*,#178,.T.);
#135=ORIENTED_EDGE('',*,*,#156,.T.);
#136=ORIENTED_EDGE('',*,*,#183,.F.);
#137=ORIENTED_EDGE('',*,*,#182,.F.);
#138=ORIENTED_EDGE('',*,*,#179,.F.);
#139=ORIENTED_EDGE('',*,*,#145,.F.);
#140=ORIENTED_EDGE('',*,*,#144,.T.);
#141=ORIENTED_EDGE('',*,*,#158,.T.);
#142=ORIENTED_EDGE('',*,*,#181,.T.);
#143=ORIENTED_EDGE('',*,*,#183,.T.);
#144=EDGE_CURVE('',#184,#185,#216,.T.);
#145=EDGE_CURVE('',#184,#186,#217,.T.);
#146=EDGE_CURVE('',#187,#186,#218,.T.);
#147=EDGE_CURVE('',#187,#185,#219,.T.);
#148=EDGE_CURVE('',#188,#189,#32,.T.);
#149=EDGE_CURVE('',#189,#190,#33,.T.);
#150=EDGE_CURVE('',#190,#191,#34,.T.);
#151=EDGE_CURVE('',#191,#188,#35,.T.);
#152=EDGE_CURVE('',#191,#192,#36,.T.);
#153=EDGE_CURVE('',#193,#192,#37,.T.);
#154=EDGE_CURVE('',#188,#193,#38,.T.);
#155=EDGE_CURVE('',#189,#194,#39,.T.);
#156=EDGE_CURVE('',#195,#194,#40,.T.);
#157=EDGE_CURVE('',#190,#195,#41,.T.);
#158=EDGE_CURVE('',#185,#196,#42,.T.);
#159=EDGE_CURVE('',#197,#187,#43,.T.);
#160=EDGE_CURVE('',#196,#197,#220,.T.);
#161=EDGE_CURVE('',#198,#198,#221,.T.);
#162=EDGE_CURVE('',#199,#199,#222,.T.);
#163=EDGE_CURVE('',#200,#200,#223,.T.);
#164=EDGE_CURVE('',#201,#201,#224,.T.);
#165=EDGE_CURVE('',#202,#202,#225,.T.);
#166=EDGE_CURVE('',#203,#203,#226,.T.);
#167=EDGE_CURVE('',#204,#204,#227,.T.);
#168=EDGE_CURVE('',#194,#193,#44,.T.);
#169=EDGE_CURVE('',#205,#205,#228,.T.);
#170=EDGE_CURVE('',#206,#206,#229,.T.);
#171=EDGE_CURVE('',#207,#207,#230,.T.);
#172=EDGE_CURVE('',#208,#208,#231,.T.);
#173=EDGE_CURVE('',#209,#209,#232,.T.);
#174=EDGE_CURVE('',#210,#210,#233,.T.);
#175=EDGE_CURVE('',#211,#211,#234,.T.);
#176=EDGE_CURVE('',#212,#212,#235,.T.);
#177=EDGE_CURVE('',#213,#213,#236,.T.);
#178=EDGE_CURVE('',#192,#195,#45,.T.);
#179=EDGE_CURVE('',#186,#214,#46,.T.);
#180=EDGE_CURVE('',#214,#197,#237,.T.);
#181=EDGE_CURVE('',#196,#215,#238,.T.);
#182=EDGE_CURVE('',#214,#215,#239,.T.);
#183=EDGE_CURVE('',#215,#184,#47,.T.);
#184=VERTEX_POINT('',#533);
#185=VERTEX_POINT('',#534);
#186=VERTEX_POINT('',#536);
#187=VERTEX_POINT('',#538);
#188=VERTEX_POINT('',#541);
#189=VERTEX_POINT('',#542);
#190=VERTEX_POINT('',#544);
#191=VERTEX_POINT('',#546);
#192=VERTEX_POINT('',#550);
#193=VERTEX_POINT('',#552);
#194=VERTEX_POINT('',#556);
#195=VERTEX_POINT('',#558);
#196=VERTEX_POINT('',#562);
#197=VERTEX_POINT('',#564);
#198=VERTEX_POINT('',#568);
#199=VERTEX_POINT('',#570);
#200=VERTEX_POINT('',#573);
#201=VERTEX_POINT('',#575);
#202=VERTEX_POINT('',#578);
#203=VERTEX_POINT('',#580);
#204=VERTEX_POINT('',#583);
#205=VERTEX_POINT('',#587);
#206=VERTEX_POINT('',#590);
#207=VERTEX_POINT('',#593);
#208=VERTEX_POINT('',#596);
#209=VERTEX_POINT('',#599);
#210=VERTEX_POINT('',#602);
#211=VERTEX_POINT('',#605);
#212=VERTEX_POINT('',#608);
#213=VERTEX_POINT('',#611);
#214=VERTEX_POINT('',#616);
#215=VERTEX_POINT('',#620);
#216=CIRCLE('',#372,0.0005);
#217=CIRCLE('',#373,0.005);
#218=CIRCLE('',#374,0.0005);
#219=CIRCLE('',#375,0.005);
#220=CIRCLE('',#379,0.005);
#221=CIRCLE('',#381,0.0025);
#222=CIRCLE('',#382,0.00275);
#223=CIRCLE('',#384,0.0025);
#224=CIRCLE('',#385,0.00275);
#225=CIRCLE('',#387,0.002);
#226=CIRCLE('',#388,0.00225);
#227=CIRCLE('',#390,0.00225);
#228=CIRCLE('',#392,0.002);
#229=CIRCLE('',#394,0.002);
#230=CIRCLE('',#396,0.00225);
#231=CIRCLE('',#398,0.002);
#232=CIRCLE('',#400,0.00225);
#233=CIRCLE('',#402,0.0025);
#234=CIRCLE('',#404,0.00275);
#235=CIRCLE('',#406,0.0025);
#236=CIRCLE('',#408,0.00275);
#237=CIRCLE('',#411,0.0005);
#238=CIRCLE('',#413,0.0005);
#239=CIRCLE('',#414,0.005);
#240=EDGE_LOOP('',(#64,#65,#66,#67));
#241=EDGE_LOOP('',(#68,#69,#70,#71));
#242=EDGE_LOOP('',(#72,#73,#74,#75));
#243=EDGE_LOOP('',(#76,#77,#78,#79));
#244=EDGE_LOOP('',(#80,#81,#82,#83));
#245=EDGE_LOOP('',(#84));
#246=EDGE_LOOP('',(#85));
#247=EDGE_LOOP('',(#86));
#248=EDGE_LOOP('',(#87));
#249=EDGE_LOOP('',(#88));
#250=EDGE_LOOP('',(#89));
#251=EDGE_LOOP('',(#90));
#252=EDGE_LOOP('',(#91));
#253=EDGE_LOOP('',(#92));
#254=EDGE_LOOP('',(#93));
#255=EDGE_LOOP('',(#94,#95,#96,#97));
#256=EDGE_LOOP('',(#98));
#257=EDGE_LOOP('',(#99));
#258=EDGE_LOOP('',(#100));
#259=EDGE_LOOP('',(#101));
#260=EDGE_LOOP('',(#102));
#261=EDGE_LOOP('',(#103));
#262=EDGE_LOOP('',(#104));
#263=EDGE_LOOP('',(#105));
#264=EDGE_LOOP('',(#106));
#265=EDGE_LOOP('',(#107));
#266=EDGE_LOOP('',(#108));
#267=EDGE_LOOP('',(#109));
#268=EDGE_LOOP('',(#110));
#269=EDGE_LOOP('',(#111));
#270=EDGE_LOOP('',(#112));
#271=EDGE_LOOP('',(#113));
#272=EDGE_LOOP('',(#114));
#273=EDGE_LOOP('',(#115));
#274=EDGE_LOOP('',(#116));
#275=EDGE_LOOP('',(#117));
#276=EDGE_LOOP('',(#118,#119,#120,#121));
#277=EDGE_LOOP('',(#122));
#278=EDGE_LOOP('',(#123));
#279=EDGE_LOOP('',(#124,#125,#126,#127));
#280=EDGE_LOOP('',(#128,#129,#130,#131));
#281=EDGE_LOOP('',(#132,#133,#134,#135));
#282=EDGE_LOOP('',(#136,#137,#138,#139));
#283=EDGE_LOOP('',(#140,#141,#142,#143));
#284=FACE_BOUND('',#240,.T.);
#285=FACE_BOUND('',#241,.T.);
#286=FACE_BOUND('',#242,.T.);
#287=FACE_BOUND('',#243,.T.);
#288=FACE_BOUND('',#244,.T.);
#289=FACE_BOUND('',#245,.T.);
#290=FACE_BOUND('',#246,.T.);
#291=FACE_BOUND('',#247,.T.);
#292=FACE_BOUND('',#248,.T.);
#293=FACE_BOUND('',#249,.T.);
#294=FACE_BOUND('',#250,.T.);
#295=FACE_BOUND('',#251,.T.);
#296=FACE_BOUND('',#252,.T.);
#297=FACE_BOUND('',#253,.T.);
#298=FACE_BOUND('',#254,.T.);
#299=FACE_BOUND('',#255,.T.);
#300=FACE_BOUND('',#256,.T.);
#301=FACE_BOUND('',#257,.T.);
#302=FACE_BOUND('',#258,.T.);
#303=FACE_BOUND('',#259,.T.);
#304=FACE_BOUND('',#260,.T.);
#305=FACE_BOUND('',#261,.T.);
#306=FACE_BOUND('',#262,.T.);
#307=FACE_BOUND('',#263,.T.);
#308=FACE_BOUND('',#264,.T.);
#309=FACE_BOUND('',#265,.T.);
#310=FACE_BOUND('',#266,.T.);
#311=FACE_BOUND('',#267,.T.);
#312=FACE_BOUND('',#268,.T.);
#313=FACE_BOUND('',#269,.T.);
#314=FACE_BOUND('',#270,.T.);
#315=FACE_BOUND('',#271,.T.);
#316=FACE_BOUND('',#272,.T.);
#317=FACE_BOUND('',#273,.T.);
#318=FACE_BOUND('',#274,.T.);
#319=FACE_BOUND('',#275,.T.);
#320=FACE_BOUND('',#276,.T.);
#321=FACE_BOUND('',#277,.T.);
#322=FACE_BOUND('',#278,.T.);
#323=FACE_BOUND('',#279,.T.);
#324=FACE_BOUND('',#280,.T.);
#325=FACE_BOUND('',#281,.T.);
#326=FACE_BOUND('',#282,.T.);
#327=FACE_BOUND('',#283,.T.);
#328=PLANE('',#371);
#329=PLANE('',#376);
#330=PLANE('',#377);
#331=PLANE('',#389);
#332=PLANE('',#407);
#333=PLANE('',#412);
#334=ADVANCED_FACE('',(#284,#285),#328,.F.);
#335=ADVANCED_FACE('',(#286),#329,.T.);
#336=ADVANCED_FACE('',(#287),#330,.T.);
#337=ADVANCED_FACE('',(#288),#24,.F.);
#338=ADVANCED_FACE('',(#289,#290),#16,.T.);
#339=ADVANCED_FACE('',(#291,#292),#17,.T.);
#340=ADVANCED_FACE('',(#293,#294),#18,.T.);
#341=ADVANCED_FACE('',(#295,#296,#297,#298,#299),#331,.T.);
#342=ADVANCED_FACE('',(#300,#301),#19,.T.);
#343=ADVANCED_FACE('',(#302,#303),#25,.F.);
#344=ADVANCED_FACE('',(#304,#305),#20,.T.);
#345=ADVANCED_FACE('',(#306,#307),#26,.F.);
#346=ADVANCED_FACE('',(#308,#309),#21,.T.);
#347=ADVANCED_FACE('',(#310,#311),#27,.F.);
#348=ADVANCED_FACE('',(#312,#313),#22,.T.);
#349=ADVANCED_FACE('',(#314,#315),#28,.F.);
#350=ADVANCED_FACE('',(#316,#317,#318,#319,#320),#332,.T.);
#351=ADVANCED_FACE('',(#321,#322),#23,.T.);
#352=ADVANCED_FACE('',(#323),#29,.T.);
#353=ADVANCED_FACE('',(#324,#325),#333,.T.);
#354=ADVANCED_FACE('',(#326),#30,.F.);
#355=ADVANCED_FACE('',(#327),#31,.T.);
#356=CLOSED_SHELL('',(#334,#335,#336,#337,#338,#339,#340,#341,#342,#343,
#344,#345,#346,#347,#348,#349,#350,#351,#352,#353,#354,#355));
#357=STYLED_ITEM('',(#358),#365);
#358=PRESENTATION_STYLE_ASSIGNMENT((#359));
#359=SURFACE_STYLE_USAGE(.BOTH.,#360);
#360=SURFACE_SIDE_STYLE('',(#361));
#361=SURFACE_STYLE_FILL_AREA(#362);
#362=FILL_AREA_STYLE('',(#363));
#363=FILL_AREA_STYLE_COLOUR('',#364);
#364=COLOUR_RGB('',0.796078431372549,0.796078431372549,0.796078431372549);
#365=MANIFOLD_SOLID_BREP('Rod',#356);
#366=SHAPE_DEFINITION_REPRESENTATION(#634,#368);
#367=SHAPE_DEFINITION_REPRESENTATION(#635,#369);
#368=SHAPE_REPRESENTATION('Loadcell_5kg v7',(#370,#417),#627);
#369=SHAPE_REPRESENTATION('Rod',(#370),#628);
#370=AXIS2_PLACEMENT_3D('',#530,#418,#419);
#371=AXIS2_PLACEMENT_3D('',#531,#420,#421);
#372=AXIS2_PLACEMENT_3D('',#532,#422,#423);
#373=AXIS2_PLACEMENT_3D('',#535,#424,#425);
#374=AXIS2_PLACEMENT_3D('',#537,#426,#427);
#375=AXIS2_PLACEMENT_3D('',#539,#428,#429);
#376=AXIS2_PLACEMENT_3D('',#548,#434,#435);
#377=AXIS2_PLACEMENT_3D('',#554,#439,#440);
#378=AXIS2_PLACEMENT_3D('',#560,#444,#445);
#379=AXIS2_PLACEMENT_3D('',#565,#448,#449);
#380=AXIS2_PLACEMENT_3D('',#566,#450,#451);
#381=AXIS2_PLACEMENT_3D('',#567,#452,#453);
#382=AXIS2_PLACEMENT_3D('',#569,#454,#455);
#383=AXIS2_PLACEMENT_3D('',#571,#456,#457);
#384=AXIS2_PLACEMENT_3D('',#572,#458,#459);
#385=AXIS2_PLACEMENT_3D('',#574,#460,#461);
#386=AXIS2_PLACEMENT_3D('',#576,#462,#463);
#387=AXIS2_PLACEMENT_3D('',#577,#464,#465);
#388=AXIS2_PLACEMENT_3D('',#579,#466,#467);
#389=AXIS2_PLACEMENT_3D('',#581,#468,#469);
#390=AXIS2_PLACEMENT_3D('',#582,#470,#471);
#391=AXIS2_PLACEMENT_3D('',#585,#473,#474);
#392=AXIS2_PLACEMENT_3D('',#586,#475,#476);
#393=AXIS2_PLACEMENT_3D('',#588,#477,#478);
#394=AXIS2_PLACEMENT_3D('',#589,#479,#480);
#395=AXIS2_PLACEMENT_3D('',#591,#481,#482);
#396=AXIS2_PLACEMENT_3D('',#592,#483,#484);
#397=AXIS2_PLACEMENT_3D('',#594,#485,#486);
#398=AXIS2_PLACEMENT_3D('',#595,#487,#488);
#399=AXIS2_PLACEMENT_3D('',#597,#489,#490);
#400=AXIS2_PLACEMENT_3D('',#598,#491,#492);
#401=AXIS2_PLACEMENT_3D('',#600,#493,#494);
#402=AXIS2_PLACEMENT_3D('',#601,#495,#496);
#403=AXIS2_PLACEMENT_3D('',#603,#497,#498);
#404=AXIS2_PLACEMENT_3D('',#604,#499,#500);
#405=AXIS2_PLACEMENT_3D('',#606,#501,#502);
#406=AXIS2_PLACEMENT_3D('',#607,#503,#504);
#407=AXIS2_PLACEMENT_3D('',#609,#505,#506);
#408=AXIS2_PLACEMENT_3D('',#610,#507,#508);
#409=AXIS2_PLACEMENT_3D('',#613,#510,#511);
#410=AXIS2_PLACEMENT_3D('',#614,#512,#513);
#411=AXIS2_PLACEMENT_3D('',#617,#515,#516);
#412=AXIS2_PLACEMENT_3D('',#618,#517,#518);
#413=AXIS2_PLACEMENT_3D('',#619,#519,#520);
#414=AXIS2_PLACEMENT_3D('',#621,#521,#522);
#415=AXIS2_PLACEMENT_3D('',#622,#523,#524);
#416=AXIS2_PLACEMENT_3D('',#624,#526,#527);
#417=AXIS2_PLACEMENT_3D('',#625,#528,#529);
#418=DIRECTION('',(0.,0.,1.));
#419=DIRECTION('',(1.,0.,0.));
#420=DIRECTION('',(0.,1.,0.));
#421=DIRECTION('',(1.,0.,0.));
#422=DIRECTION('',(0.,1.,0.));
#423=DIRECTION('',(0.,0.,1.));
#424=DIRECTION('',(0.,1.,0.));
#425=DIRECTION('',(-1.,0.,0.));
#426=DIRECTION('',(0.,1.,0.));
#427=DIRECTION('',(0.,0.,-1.));
#428=DIRECTION('',(0.,1.,0.));
#429=DIRECTION('',(-1.,0.,0.));
#430=DIRECTION('',(-1.,0.,0.));
#431=DIRECTION('',(0.,0.,-1.));
#432=DIRECTION('',(1.,0.,0.));
#433=DIRECTION('',(0.,0.,1.));
#434=DIRECTION('',(1.,0.,0.));
#435=DIRECTION('',(0.,0.,-1.));
#436=DIRECTION('',(0.,1.,0.));
#437=DIRECTION('',(0.,0.,-1.));
#438=DIRECTION('',(0.,1.,0.));
#439=DIRECTION('',(-1.,0.,0.));
#440=DIRECTION('',(0.,0.,1.));
#441=DIRECTION('',(0.,1.,0.));
#442=DIRECTION('',(0.,0.,1.));
#443=DIRECTION('',(0.,1.,0.));
#444=DIRECTION('',(0.,-1.,0.));
#445=DIRECTION('',(1.,0.,-1.22464679914735E-16));
#446=DIRECTION('',(0.,1.,0.));
#447=DIRECTION('',(0.,-1.,0.));
#448=DIRECTION('',(0.,-1.,0.));
#449=DIRECTION('',(-1.,0.,0.));
#450=DIRECTION('',(0.,0.,-1.));
#451=DIRECTION('',(-1.,0.,0.));
#452=DIRECTION('',(0.,0.,-1.));
#453=DIRECTION('',(1.,0.,0.));
#454=DIRECTION('',(0.,0.,1.));
#455=DIRECTION('',(1.,0.,0.));
#456=DIRECTION('',(0.,0.,-1.));
#457=DIRECTION('',(-1.,0.,0.));
#458=DIRECTION('',(0.,0.,-1.));
#459=DIRECTION('',(1.,0.,0.));
#460=DIRECTION('',(0.,0.,1.));
#461=DIRECTION('',(1.,0.,0.));
#462=DIRECTION('',(0.,0.,-1.));
#463=DIRECTION('',(-1.,0.,0.));
#464=DIRECTION('',(0.,0.,-1.));
#465=DIRECTION('',(1.,0.,0.));
#466=DIRECTION('',(0.,0.,1.));
#467=DIRECTION('',(1.,0.,0.));
#468=DIRECTION('',(0.,0.,1.));
#469=DIRECTION('',(1.,0.,0.));
#470=DIRECTION('',(0.,0.,1.));
#471=DIRECTION('',(1.,0.,0.));
#472=DIRECTION('',(1.,0.,0.));
#473=DIRECTION('',(0.,0.,-1.));
#474=DIRECTION('',(-1.,0.,0.));
#475=DIRECTION('',(0.,0.,-1.));
#476=DIRECTION('',(1.,0.,0.));
#477=DIRECTION('',(0.,0.,-1.));
#478=DIRECTION('',(1.,0.,0.));
#479=DIRECTION('',(0.,0.,1.));
#480=DIRECTION('',(1.,0.,0.));
#481=DIRECTION('',(0.,0.,1.));
#482=DIRECTION('',(1.,0.,0.));
#483=DIRECTION('',(0.,0.,-1.));
#484=DIRECTION('',(1.,0.,0.));
#485=DIRECTION('',(0.,0.,-1.));
#486=DIRECTION('',(1.,0.,0.));
#487=DIRECTION('',(0.,0.,1.));
#488=DIRECTION('',(1.,0.,0.));
#489=DIRECTION('',(0.,0.,1.));
#490=DIRECTION('',(1.,0.,0.));
#491=DIRECTION('',(0.,0.,-1.));
#492=DIRECTION('',(1.,0.,0.));
#493=DIRECTION('',(0.,0.,-1.));
#494=DIRECTION('',(1.,0.,0.));
#495=DIRECTION('',(0.,0.,1.));
#496=DIRECTION('',(1.,0.,0.));
#497=DIRECTION('',(0.,0.,1.));
#498=DIRECTION('',(1.,0.,0.));
#499=DIRECTION('',(0.,0.,-1.));
#500=DIRECTION('',(1.,0.,0.));
#501=DIRECTION('',(0.,0.,-1.));
#502=DIRECTION('',(1.,0.,0.));
#503=DIRECTION('',(0.,0.,1.));
#504=DIRECTION('',(1.,0.,0.));
#505=DIRECTION('',(0.,0.,-1.));
#506=DIRECTION('',(-1.,0.,0.));
#507=DIRECTION('',(0.,0.,-1.));
#508=DIRECTION('',(1.,0.,0.));
#509=DIRECTION('',(-1.,0.,0.));
#510=DIRECTION('',(0.,0.,1.));
#511=DIRECTION('',(1.,0.,0.));
#512=DIRECTION('',(0.,-1.,0.));
#513=DIRECTION('',(0.,0.,-1.));
#514=DIRECTION('',(0.,1.,0.));
#515=DIRECTION('',(0.,-1.,0.));
#516=DIRECTION('',(0.,0.,-1.));
#517=DIRECTION('',(0.,1.,0.));
#518=DIRECTION('',(0.,0.,1.));
#519=DIRECTION('',(0.,-1.,0.));
#520=DIRECTION('',(0.,0.,1.));
#521=DIRECTION('',(0.,-1.,0.));
#522=DIRECTION('',(-1.,0.,0.));
#523=DIRECTION('',(0.,-1.,0.));
#524=DIRECTION('',(-1.,0.,0.));
#525=DIRECTION('',(0.,-1.,0.));
#526=DIRECTION('',(0.,-1.,0.));
#527=DIRECTION('',(0.,0.,1.));
#528=DIRECTION('',(0.,0.,1.));
#529=DIRECTION('',(1.,0.,0.));
#530=CARTESIAN_POINT('',(0.,0.,0.));
#531=CARTESIAN_POINT('',(0.0120209096982276,0.,-0.00705386009058646));
#532=CARTESIAN_POINT('',(0.0120209096982276,0.,-0.0112965007777057));
#533=CARTESIAN_POINT('',(0.0117027278800458,0.,-0.0109108061697858));
#534=CARTESIAN_POINT('',(0.0123390915164094,0.,-0.0109108061697858));
#535=CARTESIAN_POINT('',(0.00852090969822762,0.,-0.00705386009058646));
#536=CARTESIAN_POINT('',(0.0117027278800458,0.,-0.00319691401138712));
#537=CARTESIAN_POINT('',(0.0120209096982276,0.,-0.00281121940346718));
#538=CARTESIAN_POINT('',(0.0123390915164094,0.,-0.00319691401138712));
#539=CARTESIAN_POINT('',(0.0155209096982276,0.,-0.00705386009058646));
#540=CARTESIAN_POINT('',(0.0520209096982276,0.,-0.000553860090586464));
#541=CARTESIAN_POINT('',(0.0520209096982276,0.,-0.000553860090586464));
#542=CARTESIAN_POINT('',(-0.0279790903017724,0.,-0.000553860090586464));
#543=CARTESIAN_POINT('',(-0.0279790903017724,0.,-0.000553860090586464));
#544=CARTESIAN_POINT('',(-0.0279790903017724,0.,-0.0135538600905865));
#545=CARTESIAN_POINT('',(-0.0279790903017724,0.,-0.0135538600905865));
#546=CARTESIAN_POINT('',(0.0520209096982276,0.,-0.0135538600905865));
#547=CARTESIAN_POINT('',(0.0520209096982276,0.,-0.0135538600905865));
#548=CARTESIAN_POINT('',(0.0520209096982276,0.,-0.000553860090586464));
#549=CARTESIAN_POINT('',(0.0520209096982276,0.,-0.0135538600905865));
#550=CARTESIAN_POINT('',(0.0520209096982276,0.013,-0.0135538600905865));
#551=CARTESIAN_POINT('',(0.0520209096982276,0.013,-0.0135538600905865));
#552=CARTESIAN_POINT('',(0.0520209096982276,0.013,-0.000553860090586464));
#553=CARTESIAN_POINT('',(0.0520209096982276,0.,-0.000553860090586464));
#554=CARTESIAN_POINT('',(-0.0279790903017724,0.,-0.0135538600905865));
#555=CARTESIAN_POINT('',(-0.0279790903017724,0.,-0.000553860090586464));
#556=CARTESIAN_POINT('',(-0.0279790903017724,0.013,-0.000553860090586464));
#557=CARTESIAN_POINT('',(-0.0279790903017724,0.013,-0.000553860090586464));
#558=CARTESIAN_POINT('',(-0.0279790903017724,0.013,-0.0135538600905865));
#559=CARTESIAN_POINT('',(-0.0279790903017724,0.,-0.0135538600905865));
#560=CARTESIAN_POINT('',(0.0155209096982276,0.013,-0.00705386009058646));
#561=CARTESIAN_POINT('',(0.0123390915164094,0.013,-0.0109108061697858));
#562=CARTESIAN_POINT('',(0.0123390915164094,0.013,-0.0109108061697858));
#563=CARTESIAN_POINT('',(0.0123390915164094,0.013,-0.00319691401138711));
#564=CARTESIAN_POINT('',(0.0123390915164094,0.013,-0.00319691401138712));
#565=CARTESIAN_POINT('',(0.0155209096982276,0.013,-0.00705386009058646));
#566=CARTESIAN_POINT('',(0.0470209096982276,0.0065,-0.000803860090586464));
#567=CARTESIAN_POINT('',(0.0470209096982276,0.0065,-0.000803860090586464));
#568=CARTESIAN_POINT('',(0.0495209096982276,0.0065,-0.000803860090586464));
#569=CARTESIAN_POINT('',(0.0470209096982276,0.0065,-0.000553860090586464));
#570=CARTESIAN_POINT('',(0.0497709096982276,0.0065,-0.000553860090586464));
#571=CARTESIAN_POINT('',(0.0320209096982276,0.0065,-0.000803860090586464));
#572=CARTESIAN_POINT('',(0.0320209096982276,0.0065,-0.000803860090586464));
#573=CARTESIAN_POINT('',(0.0345209096982276,0.0065,-0.000803860090586464));
#574=CARTESIAN_POINT('',(0.0320209096982276,0.0065,-0.000553860090586464));
#575=CARTESIAN_POINT('',(0.0347709096982276,0.0065,-0.000553860090586464));
#576=CARTESIAN_POINT('',(-0.00797909030177238,0.0065,-0.000803860090586464));
#577=CARTESIAN_POINT('',(-0.00797909030177238,0.0065,-0.000803860090586464));
#578=CARTESIAN_POINT('',(-0.00597909030177238,0.0065,-0.000803860090586464));
#579=CARTESIAN_POINT('',(-0.00797909030177238,0.0065,-0.000553860090586464));
#580=CARTESIAN_POINT('',(-0.00572909030177238,0.0065,-0.000553860090586464));
#581=CARTESIAN_POINT('',(-0.0279790903017724,0.,-0.000553860090586464));
#582=CARTESIAN_POINT('',(-0.0229790903017724,0.0065,-0.000553860090586464));
#583=CARTESIAN_POINT('',(-0.0207290903017724,0.0065,-0.000553860090586464));
#584=CARTESIAN_POINT('',(0.0520209096982276,0.013,-0.000553860090586464));
#585=CARTESIAN_POINT('',(-0.0229790903017724,0.0065,-0.000803860090586464));
#586=CARTESIAN_POINT('',(-0.0229790903017724,0.0065,-0.000803860090586464));
#587=CARTESIAN_POINT('',(-0.0209790903017724,0.0065,-0.000803860090586464));
#588=CARTESIAN_POINT('',(-0.0229790903017724,0.0065,-0.000553860090586464));
#589=CARTESIAN_POINT('',(-0.0229790903017724,0.0065,-0.0133038600905865));
#590=CARTESIAN_POINT('',(-0.0209790903017724,0.0065,-0.0133038600905865));
#591=CARTESIAN_POINT('',(-0.0229790903017724,0.0065,-0.0133038600905865));
#592=CARTESIAN_POINT('',(-0.0229790903017724,0.0065,-0.0135538600905865));
#593=CARTESIAN_POINT('',(-0.0207290903017724,0.0065,-0.0135538600905865));
#594=CARTESIAN_POINT('',(-0.00797909030177238,0.0065,-0.000553860090586464));
#595=CARTESIAN_POINT('',(-0.00797909030177238,0.0065,-0.0133038600905865));
#596=CARTESIAN_POINT('',(-0.00597909030177238,0.0065,-0.0133038600905865));
#597=CARTESIAN_POINT('',(-0.00797909030177238,0.0065,-0.0133038600905865));
#598=CARTESIAN_POINT('',(-0.00797909030177238,0.0065,-0.0135538600905865));
#599=CARTESIAN_POINT('',(-0.00572909030177238,0.0065,-0.0135538600905865));
#600=CARTESIAN_POINT('',(0.0320209096982276,0.0065,-0.000553860090586464));
#601=CARTESIAN_POINT('',(0.0320209096982276,0.0065,-0.0133038600905865));
#602=CARTESIAN_POINT('',(0.0345209096982276,0.0065,-0.0133038600905865));
#603=CARTESIAN_POINT('',(0.0320209096982276,0.0065,-0.0133038600905865));
#604=CARTESIAN_POINT('',(0.0320209096982276,0.0065,-0.0135538600905865));
#605=CARTESIAN_POINT('',(0.0347709096982276,0.0065,-0.0135538600905865));
#606=CARTESIAN_POINT('',(0.0470209096982276,0.0065,-0.000553860090586464));
#607=CARTESIAN_POINT('',(0.0470209096982276,0.0065,-0.0133038600905865));
#608=CARTESIAN_POINT('',(0.0495209096982276,0.0065,-0.0133038600905865));
#609=CARTESIAN_POINT('',(0.0520209096982276,0.,-0.0135538600905865));
#610=CARTESIAN_POINT('',(0.0470209096982276,0.0065,-0.0135538600905865));
#611=CARTESIAN_POINT('',(0.0497709096982276,0.0065,-0.0135538600905865));
#612=CARTESIAN_POINT('',(-0.0279790903017724,0.013,-0.0135538600905865));
#613=CARTESIAN_POINT('',(0.0470209096982276,0.0065,-0.0133038600905865));
#614=CARTESIAN_POINT('',(0.0120209096982276,0.013,-0.00281121940346718));
#615=CARTESIAN_POINT('',(0.0117027278800458,0.013,-0.00319691401138711));
#616=CARTESIAN_POINT('',(0.0117027278800458,0.013,-0.00319691401138712));
#617=CARTESIAN_POINT('',(0.0120209096982276,0.013,-0.00281121940346718));
#618=CARTESIAN_POINT('',(0.0120209096982276,0.013,-0.00705386009058646));
#619=CARTESIAN_POINT('',(0.0120209096982276,0.013,-0.0112965007777057));
#620=CARTESIAN_POINT('',(0.0117027278800458,0.013,-0.0109108061697858));
#621=CARTESIAN_POINT('',(0.00852090969822762,0.013,-0.00705386009058646));
#622=CARTESIAN_POINT('',(0.00852090969822762,0.013,-0.00705386009058646));
#623=CARTESIAN_POINT('',(0.0117027278800458,0.013,-0.0109108061697858));
#624=CARTESIAN_POINT('',(0.0120209096982276,0.013,-0.0112965007777057));
#625=CARTESIAN_POINT('',(0.,0.,0.));
#626=MECHANICAL_DESIGN_GEOMETRIC_PRESENTATION_REPRESENTATION('',(#357),
#627);
#627=(
GEOMETRIC_REPRESENTATION_CONTEXT(3)
GLOBAL_UNCERTAINTY_ASSIGNED_CONTEXT((#629))
GLOBAL_UNIT_ASSIGNED_CONTEXT((#633,#632,#631))
REPRESENTATION_CONTEXT('Loadcell_5kg v7','TOP_LEVEL_ASSEMBLY_PART')
);
#628=(
GEOMETRIC_REPRESENTATION_CONTEXT(3)
GLOBAL_UNCERTAINTY_ASSIGNED_CONTEXT((#630))
GLOBAL_UNIT_ASSIGNED_CONTEXT((#633,#632,#631))
REPRESENTATION_CONTEXT('Rod','COMPONENT_PART')
);
#629=UNCERTAINTY_MEASURE_WITH_UNIT(LENGTH_MEASURE(1.E-8),#633,
'DISTANCE_ACCURACY_VALUE','Maximum Tolerance applied to model');
#630=UNCERTAINTY_MEASURE_WITH_UNIT(LENGTH_MEASURE(1.E-6),#633,
'DISTANCE_ACCURACY_VALUE','Maximum Tolerance applied to model');
#631=(
NAMED_UNIT(*)
SI_UNIT($,.STERADIAN.)
SOLID_ANGLE_UNIT()
);
#632=(
NAMED_UNIT(*)
PLANE_ANGLE_UNIT()
SI_UNIT($,.RADIAN.)
);
#633=(
LENGTH_UNIT()
NAMED_UNIT(*)
SI_UNIT($,.METRE.)
);
#634=PRODUCT_DEFINITION_SHAPE('','',#637);
#635=PRODUCT_DEFINITION_SHAPE('','',#638);
#636=PRODUCT_DEFINITION_SHAPE(' ','NAUO PRDDFN',#11);
#637=PRODUCT_DEFINITION('','',#641,#639);
#638=PRODUCT_DEFINITION('','',#642,#640);
#639=PRODUCT_DEFINITION_CONTEXT('',#652,'design');
#640=PRODUCT_DEFINITION_CONTEXT('',#652,'design');
#641=PRODUCT_DEFINITION_FORMATION_WITH_SPECIFIED_SOURCE('','',#645,
 .NOT_KNOWN.);
#642=PRODUCT_DEFINITION_FORMATION_WITH_SPECIFIED_SOURCE('','',#646,
 .NOT_KNOWN.);
#643=PRODUCT_RELATED_PRODUCT_CATEGORY('','',(#645));
#644=PRODUCT_RELATED_PRODUCT_CATEGORY('','',(#646));
#645=PRODUCT('Loadcell_5kg v7','Loadcell_5kg v7','Loadcell_5kg v7',(#649));
#646=PRODUCT('Rod','Rod','Rod',(#650));
#647=PRODUCT_CATEGORY('','');
#648=PRODUCT_CATEGORY('','');
#649=PRODUCT_CONTEXT('',#652,'mechanical');
#650=PRODUCT_CONTEXT('',#652,'mechanical');
#651=APPLICATION_PROTOCOL_DEFINITION('international standard',
'ap242_managed_model_based_3d_engineering',2020,#652);
#652=APPLICATION_CONTEXT('managed model based 3d engineering');
ENDSEC;
END-ISO-10303-21;
