ISO-10303-21;
HEADER;
/* Generated by software containing ST-Developer
 * from STEP Tools, Inc. (www.steptools.com) 
 */
/* OPTION: using custom renumber hook */

FILE_DESCRIPTION(
/* description */ ('STEP AP242 Edition 2',
'CAx-IF Rec.Pracs.---Representation and Presentation of Product Manufa
cturing Information (PMI)---4.0---2014-10-13',
'CAx-IF Rec.Pracs.---3D Tessellated Geometry---0.4---2014-09-14','2;1',
'CAx-IF Rec.Pracs.---User Defined Attributes---1.5---2016-08-15'),
/* implementation_level */ '2;1');

FILE_NAME(
/* name */ 'MotorMount - Part 1',
/* time_stamp */ '2026-07-28T04:41:40Z',
/* author */ (''),
/* organization */ (''),
/* preprocessor_version */ 'ST-DEVELOPER v20',
/* originating_system */ 'ONSHAPE BY PTC INC, 1.218',
/* authorisation */ '  ');

FILE_SCHEMA (('AP242_MANAGED_MODEL_BASED_3D_ENGINEERING_MIM_LF { 1 0 10303 442 3 1 4 }'));
ENDSEC;

DATA;
#10=SHAPE_REPRESENTATION_RELATIONSHIP('','',#162,#11);
#11=ADVANCED_BREP_SHAPE_REPRESENTATION('',(#160),#269);
#12=PLANE('',#174);
#13=PLANE('',#176);
#14=PLANE('',#179);
#15=PLANE('',#180);
#16=PLANE('',#181);
#17=LINE('',#240,#25);
#18=LINE('',#244,#26);
#19=LINE('',#251,#27);
#20=LINE('',#255,#28);
#21=LINE('',#258,#29);
#22=LINE('',#260,#30);
#23=LINE('',#264,#31);
#24=LINE('',#266,#32);
#25=VECTOR('',#196,1.);
#26=VECTOR('',#199,1.);
#27=VECTOR('',#208,1.);
#28=VECTOR('',#211,1.);
#29=VECTOR('',#216,1.);
#30=VECTOR('',#217,1.);
#31=VECTOR('',#222,1.);
#32=VECTOR('',#225,1.);
#33=ORIENTED_EDGE('',*,*,#67,.T.);
#34=ORIENTED_EDGE('',*,*,#68,.F.);
#35=ORIENTED_EDGE('',*,*,#69,.T.);
#36=ORIENTED_EDGE('',*,*,#70,.F.);
#37=ORIENTED_EDGE('',*,*,#71,.F.);
#38=ORIENTED_EDGE('',*,*,#72,.F.);
#39=ORIENTED_EDGE('',*,*,#73,.T.);
#40=ORIENTED_EDGE('',*,*,#74,.T.);
#41=ORIENTED_EDGE('',*,*,#75,.F.);
#42=ORIENTED_EDGE('',*,*,#76,.F.);
#43=ORIENTED_EDGE('',*,*,#77,.F.);
#44=ORIENTED_EDGE('',*,*,#78,.T.);
#45=ORIENTED_EDGE('',*,*,#70,.T.);
#46=ORIENTED_EDGE('',*,*,#67,.F.);
#47=ORIENTED_EDGE('',*,*,#74,.F.);
#48=ORIENTED_EDGE('',*,*,#69,.F.);
#49=ORIENTED_EDGE('',*,*,#68,.T.);
#50=ORIENTED_EDGE('',*,*,#75,.T.);
#51=ORIENTED_EDGE('',*,*,#79,.T.);
#52=ORIENTED_EDGE('',*,*,#77,.T.);
#53=ORIENTED_EDGE('',*,*,#80,.F.);
#54=ORIENTED_EDGE('',*,*,#81,.T.);
#55=ORIENTED_EDGE('',*,*,#80,.T.);
#56=ORIENTED_EDGE('',*,*,#76,.T.);
#57=ORIENTED_EDGE('',*,*,#73,.F.);
#58=ORIENTED_EDGE('',*,*,#82,.T.);
#59=ORIENTED_EDGE('',*,*,#78,.F.);
#60=ORIENTED_EDGE('',*,*,#79,.F.);
#61=ORIENTED_EDGE('',*,*,#83,.F.);
#62=ORIENTED_EDGE('',*,*,#71,.T.);
#63=ORIENTED_EDGE('',*,*,#81,.F.);
#64=ORIENTED_EDGE('',*,*,#82,.F.);
#65=ORIENTED_EDGE('',*,*,#72,.T.);
#66=ORIENTED_EDGE('',*,*,#83,.T.);
#67=EDGE_CURVE('',#84,#84,#97,.T.);
#68=EDGE_CURVE('',#85,#85,#98,.T.);
#69=EDGE_CURVE('',#86,#86,#99,.T.);
#70=EDGE_CURVE('',#87,#88,#100,.T.);
#71=EDGE_CURVE('',#89,#87,#17,.T.);
#72=EDGE_CURVE('',#90,#89,#101,.T.);
#73=EDGE_CURVE('',#90,#88,#18,.T.);
#74=EDGE_CURVE('',#91,#91,#102,.T.);
#75=EDGE_CURVE('',#92,#92,#103,.T.);
#76=EDGE_CURVE('',#93,#88,#19,.T.);
#77=EDGE_CURVE('',#94,#93,#104,.F.);
#78=EDGE_CURVE('',#94,#87,#20,.T.);
#79=EDGE_CURVE('',#95,#94,#21,.T.);
#80=EDGE_CURVE('',#96,#93,#22,.T.);
#81=EDGE_CURVE('',#96,#95,#105,.T.);
#82=EDGE_CURVE('',#90,#96,#23,.T.);
#83=EDGE_CURVE('',#89,#95,#24,.T.);
#84=VERTEX_POINT('',#231);
#85=VERTEX_POINT('',#233);
#86=VERTEX_POINT('',#236);
#87=VERTEX_POINT('',#238);
#88=VERTEX_POINT('',#239);
#89=VERTEX_POINT('',#241);
#90=VERTEX_POINT('',#243);
#91=VERTEX_POINT('',#247);
#92=VERTEX_POINT('',#249);
#93=VERTEX_POINT('',#252);
#94=VERTEX_POINT('',#254);
#95=VERTEX_POINT('',#259);
#96=VERTEX_POINT('',#261);
#97=CIRCLE('',#165,0.002);
#98=CIRCLE('',#166,0.002);
#99=CIRCLE('',#168,0.0177);
#100=CIRCLE('',#169,0.0177);
#101=CIRCLE('',#170,0.0177);
#102=CIRCLE('',#172,0.002);
#103=CIRCLE('',#173,0.002);
#104=CIRCLE('',#175,0.0127);
#105=CIRCLE('',#178,0.0127);
#106=EDGE_LOOP('',(#33));
#107=EDGE_LOOP('',(#34));
#108=EDGE_LOOP('',(#35));
#109=EDGE_LOOP('',(#36,#37,#38,#39));
#110=EDGE_LOOP('',(#40));
#111=EDGE_LOOP('',(#41));
#112=EDGE_LOOP('',(#42,#43,#44,#45));
#113=EDGE_LOOP('',(#46));
#114=EDGE_LOOP('',(#47));
#115=EDGE_LOOP('',(#48));
#116=EDGE_LOOP('',(#49));
#117=EDGE_LOOP('',(#50));
#118=EDGE_LOOP('',(#51,#52,#53,#54));
#119=EDGE_LOOP('',(#55,#56,#57,#58));
#120=EDGE_LOOP('',(#59,#60,#61,#62));
#121=EDGE_LOOP('',(#63,#64,#65,#66));
#122=FACE_BOUND('',#106,.T.);
#123=FACE_BOUND('',#107,.T.);
#124=FACE_BOUND('',#108,.T.);
#125=FACE_BOUND('',#109,.T.);
#126=FACE_BOUND('',#110,.T.);
#127=FACE_BOUND('',#111,.T.);
#128=FACE_BOUND('',#112,.T.);
#129=FACE_BOUND('',#113,.T.);
#130=FACE_BOUND('',#114,.T.);
#131=FACE_BOUND('',#115,.T.);
#132=FACE_BOUND('',#116,.T.);
#133=FACE_BOUND('',#117,.T.);
#134=FACE_BOUND('',#118,.T.);
#135=FACE_BOUND('',#119,.T.);
#136=FACE_BOUND('',#120,.T.);
#137=FACE_BOUND('',#121,.T.);
#138=CYLINDRICAL_SURFACE('',#164,0.002);
#139=CYLINDRICAL_SURFACE('',#167,0.0177);
#140=CYLINDRICAL_SURFACE('',#171,0.002);
#141=CYLINDRICAL_SURFACE('',#177,0.0127);
#142=ADVANCED_FACE('',(#122,#123),#138,.F.);
#143=ADVANCED_FACE('',(#124,#125),#139,.T.);
#144=ADVANCED_FACE('',(#126,#127),#140,.F.);
#145=ADVANCED_FACE('',(#128,#129,#130),#12,.T.);
#146=ADVANCED_FACE('',(#131,#132,#133),#13,.F.);
#147=ADVANCED_FACE('',(#134),#141,.F.);
#148=ADVANCED_FACE('',(#135),#14,.T.);
#149=ADVANCED_FACE('',(#136),#15,.F.);
#150=ADVANCED_FACE('',(#137),#16,.T.);
#151=CLOSED_SHELL('',(#142,#143,#144,#145,#146,#147,#148,#149,#150));
#152=STYLED_ITEM('',(#153),#160);
#153=PRESENTATION_STYLE_ASSIGNMENT((#154));
#154=SURFACE_STYLE_USAGE(.BOTH.,#155);
#155=SURFACE_SIDE_STYLE('',(#156));
#156=SURFACE_STYLE_FILL_AREA(#157);
#157=FILL_AREA_STYLE('',(#158));
#158=FILL_AREA_STYLE_COLOUR('',#159);
#159=COLOUR_RGB('',0.615686274509804,0.811764705882353,0.929411764705882);
#160=MANIFOLD_SOLID_BREP('Part 1',#151);
#161=SHAPE_DEFINITION_REPRESENTATION(#274,#162);
#162=SHAPE_REPRESENTATION('Part 1',(#163),#269);
#163=AXIS2_PLACEMENT_3D('',#228,#182,#183);
#164=AXIS2_PLACEMENT_3D('',#229,#184,#185);
#165=AXIS2_PLACEMENT_3D('',#230,#186,#187);
#166=AXIS2_PLACEMENT_3D('',#232,#188,#189);
#167=AXIS2_PLACEMENT_3D('',#234,#190,#191);
#168=AXIS2_PLACEMENT_3D('',#235,#192,#193);
#169=AXIS2_PLACEMENT_3D('',#237,#194,#195);
#170=AXIS2_PLACEMENT_3D('',#242,#197,#198);
#171=AXIS2_PLACEMENT_3D('',#245,#200,#201);
#172=AXIS2_PLACEMENT_3D('',#246,#202,#203);
#173=AXIS2_PLACEMENT_3D('',#248,#204,#205);
#174=AXIS2_PLACEMENT_3D('',#250,#206,#207);
#175=AXIS2_PLACEMENT_3D('',#253,#209,#210);
#176=AXIS2_PLACEMENT_3D('',#256,#212,#213);
#177=AXIS2_PLACEMENT_3D('',#257,#214,#215);
#178=AXIS2_PLACEMENT_3D('',#262,#218,#219);
#179=AXIS2_PLACEMENT_3D('',#263,#220,#221);
#180=AXIS2_PLACEMENT_3D('',#265,#223,#224);
#181=AXIS2_PLACEMENT_3D('',#267,#226,#227);
#182=DIRECTION('',(0.,0.,1.));
#183=DIRECTION('',(1.,0.,0.));
#184=DIRECTION('',(0.,1.,0.));
#185=DIRECTION('',(0.,0.,1.));
#186=DIRECTION('',(0.,-1.,0.));
#187=DIRECTION('',(0.,0.,-1.));
#188=DIRECTION('',(0.,-1.,0.));
#189=DIRECTION('',(0.,0.,-1.));
#190=DIRECTION('',(0.,1.,0.));
#191=DIRECTION('',(0.,0.,1.));
#192=DIRECTION('',(0.,-1.,0.));
#193=DIRECTION('',(0.,0.,-1.));
#194=DIRECTION('',(0.,-1.,0.));
#195=DIRECTION('',(0.,0.,-1.));
#196=DIRECTION('',(0.,1.,0.));
#197=DIRECTION('',(0.,-1.,0.));
#198=DIRECTION('',(0.,0.,-1.));
#199=DIRECTION('',(0.,1.,0.));
#200=DIRECTION('',(0.,1.,0.));
#201=DIRECTION('',(0.,0.,1.));
#202=DIRECTION('',(0.,-1.,0.));
#203=DIRECTION('',(0.,0.,-1.));
#204=DIRECTION('',(0.,-1.,0.));
#205=DIRECTION('',(0.,0.,-1.));
#206=DIRECTION('',(0.,-1.,0.));
#207=DIRECTION('',(1.,0.,0.));
#208=DIRECTION('',(-1.,0.,0.));
#209=DIRECTION('',(0.,-1.,0.));
#210=DIRECTION('',(0.,0.,-1.));
#211=DIRECTION('',(1.,0.,0.));
#212=DIRECTION('',(0.,-1.,0.));
#213=DIRECTION('',(1.,0.,0.));
#214=DIRECTION('',(0.,1.,0.));
#215=DIRECTION('',(0.,0.,1.));
#216=DIRECTION('',(0.,1.,0.));
#217=DIRECTION('',(0.,1.,0.));
#218=DIRECTION('',(0.,-1.,0.));
#219=DIRECTION('',(0.,0.,-1.));
#220=DIRECTION('',(0.,0.,1.));
#221=DIRECTION('',(1.,0.,0.));
#222=DIRECTION('',(1.,0.,0.));
#223=DIRECTION('',(0.,0.,-1.));
#224=DIRECTION('',(-1.,0.,0.));
#225=DIRECTION('',(-1.,0.,0.));
#226=DIRECTION('',(0.,-1.,0.));
#227=DIRECTION('',(1.,0.,0.));
#228=CARTESIAN_POINT('',(0.,0.,0.));
#229=CARTESIAN_POINT('',(4.33680868994202E-19,-0.005,0.01));
#230=CARTESIAN_POINT('',(4.33680868994202E-19,-0.005,0.01));
#231=CARTESIAN_POINT('',(4.33680868994202E-19,-0.005,0.008));
#232=CARTESIAN_POINT('',(4.33680868994202E-19,0.,0.01));
#233=CARTESIAN_POINT('',(4.33680868994202E-19,0.,0.008));
#234=CARTESIAN_POINT('',(0.,-0.005,0.00601602485403419));
#235=CARTESIAN_POINT('',(0.,0.,0.00601602485403419));
#236=CARTESIAN_POINT('',(0.,0.,-0.0116839751459658));
#237=CARTESIAN_POINT('',(0.,-0.005,0.00601602485403419));
#238=CARTESIAN_POINT('',(0.0177,-0.005,0.00601602485403419));
#239=CARTESIAN_POINT('',(-0.0177,-0.005,0.00601602485403419));
#240=CARTESIAN_POINT('',(0.0177,-0.07,0.00601602485403419));
#241=CARTESIAN_POINT('',(0.0177,-0.07,0.00601602485403419));
#242=CARTESIAN_POINT('',(0.,-0.07,0.00601602485403419));
#243=CARTESIAN_POINT('',(-0.0177,-0.07,0.00601602485403419));
#244=CARTESIAN_POINT('',(-0.0177,-0.07,0.00601602485403419));
#245=CARTESIAN_POINT('',(0.,-0.005,1.22464679914735E-19));
#246=CARTESIAN_POINT('',(0.,-0.005,1.22464679914735E-19));
#247=CARTESIAN_POINT('',(0.,-0.005,-0.002));
#248=CARTESIAN_POINT('',(0.,0.,1.22464679914735E-19));
#249=CARTESIAN_POINT('',(0.,0.,-0.002));
#250=CARTESIAN_POINT('',(0.,-0.005,0.00601602485403419));
#251=CARTESIAN_POINT('',(0.,-0.005,0.00601602485403419));
#252=CARTESIAN_POINT('',(-0.0127,-0.005,0.00601602485403419));
#253=CARTESIAN_POINT('',(0.,-0.005,0.00601602485403419));
#254=CARTESIAN_POINT('',(0.0127,-0.005,0.00601602485403419));
#255=CARTESIAN_POINT('',(0.,-0.005,0.00601602485403419));
#256=CARTESIAN_POINT('',(0.,0.,0.00601602485403419));
#257=CARTESIAN_POINT('',(0.,-0.07,0.00601602485403419));
#258=CARTESIAN_POINT('',(0.0127,-0.07,0.00601602485403419));
#259=CARTESIAN_POINT('',(0.0127,-0.07,0.00601602485403419));
#260=CARTESIAN_POINT('',(-0.0127,-0.07,0.00601602485403419));
#261=CARTESIAN_POINT('',(-0.0127,-0.07,0.00601602485403419));
#262=CARTESIAN_POINT('',(0.,-0.07,0.00601602485403419));
#263=CARTESIAN_POINT('',(-0.0152,-0.07,0.00601602485403419));
#264=CARTESIAN_POINT('',(-0.0152,-0.07,0.00601602485403419));
#265=CARTESIAN_POINT('',(0.0152,-0.07,0.00601602485403419));
#266=CARTESIAN_POINT('',(0.0152,-0.07,0.00601602485403419));
#267=CARTESIAN_POINT('',(0.,-0.07,0.00601602485403419));
#268=MECHANICAL_DESIGN_GEOMETRIC_PRESENTATION_REPRESENTATION('',(#152),
#269);
#269=(
GEOMETRIC_REPRESENTATION_CONTEXT(3)
GLOBAL_UNCERTAINTY_ASSIGNED_CONTEXT((#270))
GLOBAL_UNIT_ASSIGNED_CONTEXT((#273,#272,#271))
REPRESENTATION_CONTEXT('Part 1','TOP_LEVEL_ASSEMBLY_PART')
);
#270=UNCERTAINTY_MEASURE_WITH_UNIT(LENGTH_MEASURE(1.E-8),#273,
'DISTANCE_ACCURACY_VALUE','Maximum Tolerance applied to model');
#271=(
NAMED_UNIT(*)
SI_UNIT($,.STERADIAN.)
SOLID_ANGLE_UNIT()
);
#272=(
NAMED_UNIT(*)
PLANE_ANGLE_UNIT()
SI_UNIT($,.RADIAN.)
);
#273=(
LENGTH_UNIT()
NAMED_UNIT(*)
SI_UNIT($,.METRE.)
);
#274=PRODUCT_DEFINITION_SHAPE('','',#275);
#275=PRODUCT_DEFINITION('','',#277,#276);
#276=PRODUCT_DEFINITION_CONTEXT('',#283,'design');
#277=PRODUCT_DEFINITION_FORMATION_WITH_SPECIFIED_SOURCE('','',#279,
 .NOT_KNOWN.);
#278=PRODUCT_RELATED_PRODUCT_CATEGORY('','',(#279));
#279=PRODUCT('Part 1','Part 1','Part 1',(#281));
#280=PRODUCT_CATEGORY('','');
#281=PRODUCT_CONTEXT('',#283,'mechanical');
#282=APPLICATION_PROTOCOL_DEFINITION('international standard',
'ap242_managed_model_based_3d_engineering',2020,#283);
#283=APPLICATION_CONTEXT('managed model based 3d engineering');
ENDSEC;
END-ISO-10303-21;
